<svg xmlns="http://www.w3.org/2000/svg" version="1.1" xmlns:xlink="http://www.w3.org/1999/xlink" xmlns:svgjs="http://svgjs.dev/svgjs" width="1000" height="542" viewBox="0 0 1000 542"><g transform="matrix(1,0,0,1,-0.6056348047761162,-0.13740047013925505)"><svg viewBox="0 0 396 215" data-background-color="#c8c8c8" preserveAspectRatio="xMidYMid meet" height="542" width="1000" xmlns="http://www.w3.org/2000/svg" xmlns:xlink="http://www.w3.org/1999/xlink"><g id="tight-bounds" transform="matrix(1,0,0,1,0.24008861730862918,0.05450387653125688)"><svg viewBox="0 0 395.52 214.8907582934676" height="214.8907582934676" width="395.52"><g><svg viewBox="0 0 395.52 214.8907582934676" height="214.8907582934676" width="395.52"><g><svg viewBox="0 0 395.52 214.8907582934676" height="214.8907582934676" width="395.52"><g id="textblocktransform"><svg viewBox="0 0 395.52 214.8907582934676" height="214.8907582934676" width="395.52" id="textblock"><g><svg viewBox="0 0 395.52 214.8907582934676" height="214.8907582934676" width="395.52"><path d="M394.594 46.09C392.735 23.784 387.435 17.583 387.435 17.583 371.165-5.391 350.86-0.439 332.619 2.862 300.414 2.996 268.339 7.903 236.208 10.535 168.767 10.936 100.749 4.334 33.643 20.617 27.339 25.613-6.54 21.598 1.121 48.945 3.129 60.321 10.456 72.946 10.232 83.385 11.236 85.214 12.631 81.021 13.226 83.653 15.309 90.746 18.711 87.4 21.501 91.593 17.614 102.791 20.403 112.114 23.062 121.884 18.377 124.427 12.371 123.223 9.675 131.654 9.396 137.766 7.89 136.606 6.235 136.338 5.026 136.16 2.59 136.829 2.999 138.747 4.394 145.305-1.594 149.097 2.162 155.521-0.422 162.48 3.948 168.503 3.353 176.042 3.278 177.559 3.687 178.853 4.338 179.21 7.22 181.128 3.018 184.875 3.464 188.935 33.029 216.683 65.104 197.5 95.394 210.259 103.259 201.337 97.346 213.426 100.489 211.553 102.943 209.367 104.728 218.423 107.499 213.293 107.927 211.82 107.276 208.341 108.8 209.01 109.6 209.367 110.307 209.278 110.418 207.226 110.586 204.147 109.117 206.066 108.726 204.46 112.947 196.34 111.906 215.657 115.866 214.854 115.68 212.49 114.528 209.099 116.889 209.545 119.232 206.155 119.306 203.344 121.389 210.973 121.463 212.623 121.835 213.783 122.43 214.586 128.938 206.289 135.409 217.531 142.233 213.783 146.417 209.679 150.433 216.014 154.672 214.453 156.16 213.203 157.666 210.973 159.098 214.72 176.632 215.523 195.319 212.177 211.943 214.854 256.364 209.858 303.836 216.906 350.674 210.304 361.719 207.761 373.192 204.147 383.958 201.248 383.958 201.248 392.679 193.307 392.679 157.618S394.538 126.39 394.817 97.973C395.096 69.555 396.398 68.396 394.538 46.09Z" opacity="1" fill="#000000" data-fill-palette-color="tertiary"></path><g transform="matrix(1,0,0,1,55.76832,26.230666666666668)"><svg width="283.98335999999995" viewBox="4.2 -33.08 58.18 33.28" height="162.42942496013427" data-palette-color="#c8c8c8"><path d="M20.36 0.2L14.7-12.62Q13.96-12.57 13.13-12.57 12.3-12.57 10.67-12.7L10.67-12.7 10.67 0 4.2 0 4.2-32.64Q7.62-33.08 12.6-33.08L12.6-33.08Q19.38-33.08 22.72-30.58 26.05-28.08 26.05-22.85L26.05-22.85Q26.05-18.8 23-15.92L23-15.92Q22-14.99 20.7-14.31L20.7-14.31 25.68-3.81Q27.15-0.56 27.93 0.05L27.93 0.05 27.81 0.17Q25.44-0.22 20.36 0.2L20.36 0.2ZM13.06-27.32L13.06-27.32Q11.82-27.32 10.67-27.2L10.67-27.2 10.67-17.87Q11.87-17.7 13.48-17.7 15.09-17.7 16.19-17.98 17.29-18.26 18.09-18.85L18.09-18.85Q19.82-20.14 19.82-22.73 19.82-25.32 18.02-26.37L18.02-26.37Q16.33-27.32 13.06-27.32ZM39.91-20.58L39.91 0.15Q38.74 0 35.4 0L35.4 0 33.44 0 33.44-32.57Q35.01-32.47 36.89-32.47 38.77-32.47 39.55-32.67L39.55-32.67 47.75-18.73 55.64-32.67Q56.42-32.47 58.62-32.47 60.81-32.47 62.38-32.57L62.38-32.57 62.38 0 60.42 0Q57.08 0 55.91 0.15L55.91 0.15 55.91-21.73 47.92-7.45 39.91-20.58Z" opacity="1" transform="matrix(1,0,0,1,0,0)" fill="#c8c8c8" class="undefined-text-0" data-fill-palette-color="quaternary" id="text-0"></path></svg></g></svg></g></svg></g></svg></g><g></g></svg></g><defs></defs></svg><rect width="395.52" height="214.8907582934676" fill="none" stroke="none" visibility="hidden"></rect></g></svg></g></svg>